<svg width="16" height="16" viewBox="0 0 16 16" fill="none" xmlns="http://www.w3.org/2000/svg">
<path d="M4.18988e-07 7.99966C-0.000391226 6.78946 0.273786 5.59495 0.801889 4.50605C1.32999 3.41716 2.09825 2.46227 3.04883 1.71329C3.99941 0.9643 5.10753 0.440737 6.28974 0.182019C7.47196 -0.0766993 8.69747 -0.0638296 9.874 0.219659C9.96128 0.240379 10.0414 0.2842 10.1059 0.346527C10.1704 0.408854 10.217 0.487392 10.2407 0.573906C10.2644 0.66042 10.2644 0.751724 10.2407 0.838244C10.217 0.924765 10.1705 1.00331 10.106 1.06566C9.84776 1.31695 9.66217 1.63331 9.56881 1.98133C9.47546 2.32935 9.47781 2.69613 9.57563 3.04292C9.67344 3.38972 9.86308 3.70367 10.1245 3.95163C10.386 4.19958 10.7095 4.37234 11.061 4.45166C11.1855 4.47959 11.2968 4.54907 11.3766 4.64866C11.4564 4.74826 11.4999 4.87204 11.5 4.99966C11.4999 5.40633 11.6238 5.80338 11.8551 6.13785C12.0864 6.47232 12.4142 6.72833 12.7948 6.87173C13.1753 7.01513 13.5905 7.03911 13.9851 6.94048C14.3796 6.84184 14.7347 6.62528 15.003 6.31966C15.065 6.24893 15.1456 6.19711 15.2357 6.17014C15.3258 6.14318 15.4217 6.14218 15.5123 6.16724C15.603 6.1923 15.6847 6.24241 15.7481 6.31183C15.8116 6.38124 15.8542 6.46714 15.871 6.55966C16.0697 7.65249 16.0386 8.77472 15.7797 9.85488C15.5209 10.935 15.0399 11.9495 14.3675 12.8335C13.6951 13.7176 12.8459 14.452 11.8741 14.9899C10.9023 15.5278 9.82908 15.8574 8.72288 15.9578C7.61668 16.0581 6.5017 15.927 5.44894 15.5728C4.39618 15.2186 3.42872 14.6491 2.60815 13.9005C1.78759 13.1519 1.13191 12.2406 0.682875 11.2246C0.233835 10.2087 0.00127352 9.1104 4.18988e-07 7.99966ZM5 5.99966C5 5.73444 4.89464 5.48009 4.70711 5.29255C4.51957 5.10502 4.26522 4.99966 4 4.99966C3.73478 4.99966 3.48043 5.10502 3.29289 5.29255C3.10536 5.48009 3 5.73444 3 5.99966C3 6.26488 3.10536 6.51923 3.29289 6.70677C3.48043 6.8943 3.73478 6.99966 4 6.99966C4.26522 6.99966 4.51957 6.8943 4.70711 6.70677C4.89464 6.51923 5 6.26488 5 5.99966ZM8 8.99966C8.26522 8.99966 8.51957 8.8943 8.70711 8.70677C8.89464 8.51923 9 8.26488 9 7.99966C9 7.73444 8.89464 7.48009 8.70711 7.29255C8.51957 7.10502 8.26522 6.99966 8 6.99966C7.73478 6.99966 7.48043 7.10502 7.29289 7.29255C7.10536 7.48009 7 7.73444 7 7.99966C7 8.26488 7.10536 8.51923 7.29289 8.70677C7.48043 8.8943 7.73478 8.99966 8 8.99966ZM11 11.9997C11 11.7344 10.8946 11.4801 10.7071 11.2926C10.5196 11.105 10.2652 10.9997 10 10.9997C9.73478 10.9997 9.48043 11.105 9.29289 11.2926C9.10536 11.4801 9 11.7344 9 11.9997C9 12.2649 9.10536 12.5192 9.29289 12.7068C9.48043 12.8943 9.73478 12.9997 10 12.9997C10.2652 12.9997 10.5196 12.8943 10.7071 12.7068C10.8946 12.5192 11 12.2649 11 11.9997ZM5 11.9997C5.26522 11.9997 5.51957 11.8943 5.70711 11.7068C5.89464 11.5192 6 11.2649 6 10.9997C6 10.7344 5.89464 10.4801 5.70711 10.2926C5.51957 10.105 5.26522 9.99966 5 9.99966C4.73478 9.99966 4.48043 10.105 4.29289 10.2926C4.10536 10.4801 4 10.7344 4 10.9997C4 11.2649 4.10536 11.5192 4.29289 11.7068C4.48043 11.8943 4.73478 11.9997 5 11.9997Z" fill="url(#paint0_linear_2702_15270)"/>
<defs>
<linearGradient id="paint0_linear_2702_15270" x1="16" y1="7.98094" x2="3.13594e-07" y2="7.98094" gradientUnits="userSpaceOnUse">
<stop stop-color="#E83C3B"/>
<stop offset="1" stop-color="#EA5B0C"/>
</linearGradient>
</defs>
</svg>
