<svg width="19" height="20" viewBox="0 0 19 20" fill="none" xmlns="http://www.w3.org/2000/svg">
<path d="M18.1665 17.277C18.1665 17.29 18.1665 17.302 18.1655 17.316C18.1495 17.631 18.0815 17.94 17.9625 18.234C17.3745 19.681 15.7215 20.379 14.2755 19.792L1.44951 12.471C0.993514 12.219 0.611514 11.837 0.353514 11.371C-0.402486 10.006 0.094514 8.28 1.45851 7.525L14.1865 0.251997C14.5675 0.0899963 14.8775 0.020998 15.1935 0.0039978C15.9495 -0.0350018 16.6745 0.222998 17.2355 0.728998C17.7965 1.235 18.1275 1.93 18.1655 2.685L18.1665 17.205V17.277Z" fill="url(#paint0_linear_2994_3999)"/>
<defs>
<linearGradient id="paint0_linear_2994_3999" x1="9.06868" y1="0.000142659" x2="9.06868" y2="20" gradientUnits="userSpaceOnUse">
<stop stop-color="#E83C3B"/>
<stop offset="1" stop-color="#EA5B0C"/>
</linearGradient>
</defs>
</svg>
