<svg width="20" height="20" viewBox="0 0 20 20" fill="none" xmlns="http://www.w3.org/2000/svg">
<path opacity="0.4" d="M0 4.447C0 1.996 2.03024 0 4.52453 0H9.48564C11.9748 0 14 1.99 14 4.437V15.553C14 18.005 11.9698 20 9.47445 20H4.51537C2.02515 20 0 18.01 0 15.563V14.623V4.447Z" fill="url(#paint0_linear_3058_3957)"/>
<path d="M19.7773 9.45504L16.9315 6.54604C16.6373 6.24604 16.164 6.24604 15.8709 6.54804C15.5787 6.85004 15.5797 7.33704 15.8728 7.63704L17.4321 9.23004H15.9371H7.54679C7.13288 9.23004 6.79688 9.57504 6.79688 10C6.79688 10.426 7.13288 10.77 7.54679 10.77H17.4321L15.8728 12.363C15.5797 12.663 15.5787 13.15 15.8709 13.452C16.0179 13.603 16.2098 13.679 16.4026 13.679C16.5935 13.679 16.7854 13.603 16.9315 13.454L19.7773 10.546C19.9185 10.401 19.9983 10.205 19.9983 10C19.9983 9.79604 19.9185 9.60004 19.7773 9.45504Z" fill="url(#paint1_linear_3058_3957)"/>
<defs>
<linearGradient id="paint0_linear_3058_3957" x1="14" y1="9.98395" x2="2.74395e-07" y2="9.98395" gradientUnits="userSpaceOnUse">
<stop stop-color="#E83C3B"/>
<stop offset="1" stop-color="#EA5B0C"/>
</linearGradient>
<linearGradient id="paint1_linear_3058_3957" x1="19.9983" y1="9.99426" x2="6.79688" y2="9.99426" gradientUnits="userSpaceOnUse">
<stop stop-color="#E83C3B"/>
<stop offset="1" stop-color="#EA5B0C"/>
</linearGradient>
</defs>
</svg>
