<svg width="15" height="15" viewBox="0 0 15 15" fill="none" xmlns="http://www.w3.org/2000/svg">
<path opacity="0.4" d="M14.5846 7.50033C14.5846 11.4132 11.4134 14.5837 7.5013 14.5837C3.58918 14.5837 0.417969 11.4132 0.417969 7.50033C0.417969 3.58891 3.58918 0.416992 7.5013 0.416992C11.4134 0.416992 14.5846 3.58891 14.5846 7.50033" fill="url(#paint0_linear_2994_5506)"/>
<path d="M10.0341 10.2026C9.94132 10.2026 9.84782 10.1785 9.76211 10.1282L6.9812 8.46933C6.82111 8.373 6.72266 8.19946 6.72266 8.01246V4.4375C6.72266 4.14425 6.96066 3.90625 7.25391 3.90625C7.54716 3.90625 7.78516 4.14425 7.78516 4.4375V7.71071L10.3068 9.2145C10.5583 9.36537 10.6412 9.69121 10.491 9.94337C10.3911 10.1098 10.2147 10.2026 10.0341 10.2026" fill="url(#paint1_linear_2994_5506)"/>
<defs>
<linearGradient id="paint0_linear_2994_5506" x1="14.5846" y1="7.48896" x2="0.417969" y2="7.48896" gradientUnits="userSpaceOnUse">
<stop stop-color="#E83C3B"/>
<stop offset="1" stop-color="#EA5B0C"/>
</linearGradient>
<linearGradient id="paint1_linear_2994_5506" x1="10.5659" y1="7.04938" x2="6.72266" y2="7.04938" gradientUnits="userSpaceOnUse">
<stop stop-color="#E83C3B"/>
<stop offset="1" stop-color="#EA5B0C"/>
</linearGradient>
</defs>
</svg>
