<svg width="25" height="25" viewBox="0 0 25 25" fill="none" xmlns="http://www.w3.org/2000/svg">
<path d="M23.7239 22.1194L19.5791 17.9745C21.0691 16.1177 21.8805 13.8205 21.8805 11.4503C21.8805 5.28352 16.5255 0.350564 10.2215 1.05193C5.42115 1.58843 1.55636 5.45349 1.02442 10.2538C0.318221 16.5532 5.25628 21.9129 11.4182 21.9129C13.8252 21.9129 16.1452 21.0786 18.0157 19.5472L22.1558 23.6872C22.5867 24.1228 23.2881 24.1228 23.7236 23.6872C23.9393 23.4719 24.0445 23.1875 24.0445 22.9032C24.0448 22.6191 23.9393 22.3347 23.7239 22.1194ZM11.4182 19.6938C6.87007 19.6938 3.17472 15.9939 3.17472 11.4503C3.17472 6.90215 6.87007 3.20223 11.4182 3.20223C15.9664 3.20223 19.6663 6.90215 19.6663 11.4503C19.6663 15.9939 15.9664 19.6938 11.4182 19.6938Z" fill="url(#paint0_linear_3014_5651)"/>
<path d="M11.4193 3.20215C6.87113 3.20215 3.17578 6.90207 3.17578 11.4502C3.17578 15.9938 6.87113 19.6937 11.4193 19.6937C15.9675 19.6937 19.6674 15.9938 19.6674 11.4502C19.6674 6.90207 15.9675 3.20215 11.4193 3.20215ZM16.7462 10.6369L14.7003 12.639L15.1818 15.4726C15.2366 15.7898 15.1106 16.1125 14.8426 16.2986C14.7003 16.4025 14.5253 16.4627 14.3502 16.4627C14.2189 16.4627 14.0822 16.4243 13.9563 16.3641L11.4236 15.0239L8.89093 16.3641C8.60093 16.5118 8.26743 16.4901 8.00482 16.2986C7.74221 16.1125 7.6109 15.7898 7.66568 15.4726L8.1525 12.639L6.10102 10.6369C5.8658 10.4127 5.78927 10.0789 5.88782 9.77253C5.98636 9.47152 6.24334 9.24194 6.5661 9.20381L9.39977 8.7825L10.6634 6.21144C10.8111 5.9217 11.1065 5.74099 11.4239 5.74099C11.7466 5.74099 12.0366 5.92144 12.1787 6.21144L13.4477 8.7825L16.2814 9.20381C16.6041 9.24194 16.8611 9.47179 16.9653 9.77253C17.0582 10.0789 16.9814 10.4127 16.7462 10.6369Z" fill="url(#paint1_linear_3014_5651)"/>
<defs>
<linearGradient id="paint0_linear_3014_5651" x1="0.957029" y1="12.4997" x2="24.0448" y2="12.4997" gradientUnits="userSpaceOnUse">
<stop stop-color="#E95A0C"/>
<stop offset="1" stop-color="#E83B3B"/>
</linearGradient>
<linearGradient id="paint1_linear_3014_5651" x1="3.17575" y1="11.448" x2="19.6673" y2="11.448" gradientUnits="userSpaceOnUse">
<stop stop-color="#E95A0C"/>
<stop offset="1" stop-color="#E83B3B"/>
</linearGradient>
</defs>
</svg>
