<svg width="20" height="16" viewBox="0 0 20 16" fill="none" xmlns="http://www.w3.org/2000/svg">
<path opacity="0.4" d="M11.7505 5.70254V3.6827C11.354 3.6827 11.0251 3.36328 11.0251 2.9781V0.573073C11.0251 0.252716 10.764 0 10.4352 0H3.7911C1.70213 0 0 1.65252 0 3.6827V6.11497C0 6.3038 0.0773694 6.4823 0.212766 6.61382C0.348162 6.74441 0.531915 6.81956 0.725339 6.81956C1.46035 6.81956 2.02128 7.32687 2.02128 7.99389C2.02128 8.69004 1.45068 9.24432 0.73501 9.25277C0.338491 9.25277 0 9.52522 0 9.91979V12.3258C0 14.355 1.70213 15.9991 3.78143 15.9991H10.4352C10.764 15.9991 11.0251 15.7445 11.0251 15.426V13.3958C11.0251 13.0022 11.354 12.6912 11.7505 12.6912V10.8696C11.354 10.8696 11.0251 10.5492 11.0251 10.165V6.40714C11.0251 6.02196 11.354 5.70254 11.7505 5.70254Z" fill="url(#paint0_linear_2994_7188)"/>
<path d="M17.9782 7.99483C17.9782 8.69004 18.5585 9.24432 19.2645 9.25371C19.661 9.25371 19.9995 9.52616 19.9995 9.91134V12.3258C19.9995 14.3559 18.3071 16 16.2181 16H13.0653C12.7461 16 12.4753 15.7454 12.4753 15.426V13.3967C12.4753 13.0022 12.1562 12.6921 11.75 12.6921V10.8705C12.1562 10.8705 12.4753 10.5502 12.4753 10.1659V6.40808C12.4753 6.02196 12.1562 5.70348 11.75 5.70348V3.6827C12.1562 3.6827 12.4753 3.36328 12.4753 2.9781V0.574012C12.4753 0.253655 12.7461 0 13.0653 0H16.2181C18.3071 0 19.9995 1.64406 19.9995 3.6733V6.04075C19.9995 6.22864 19.9221 6.40808 19.7868 6.53866C19.6514 6.67019 19.4676 6.74535 19.2742 6.74535C18.5585 6.74535 17.9782 7.30996 17.9782 7.99483Z" fill="url(#paint1_linear_2994_7188)"/>
<defs>
<linearGradient id="paint0_linear_2994_7188" x1="11.7505" y1="7.98669" x2="2.30305e-07" y2="7.98669" gradientUnits="userSpaceOnUse">
<stop stop-color="#E83C3B"/>
<stop offset="1" stop-color="#EA5B0C"/>
</linearGradient>
<linearGradient id="paint1_linear_2994_7188" x1="19.9995" y1="7.98716" x2="11.75" y2="7.98716" gradientUnits="userSpaceOnUse">
<stop stop-color="#E83C3B"/>
<stop offset="1" stop-color="#EA5B0C"/>
</linearGradient>
</defs>
</svg>
