<svg width="23" height="23" viewBox="0 0 23 23" fill="none" xmlns="http://www.w3.org/2000/svg">
<path d="M22.4617 11.4771C22.4617 10.3737 22.2986 9.3084 21.9953 8.304C21.865 7.87275 21.709 7.45261 21.5289 7.04544C21.3879 6.72669 21.2321 6.41604 21.0624 6.11396C20.9171 5.85516 20.7613 5.60284 20.596 5.35747C20.4481 5.13803 20.2925 4.92437 20.1296 4.7165C19.9803 4.52599 19.8245 4.34081 19.6631 4.16071C19.5127 3.99289 19.3571 3.82993 19.1967 3.67159C19.0455 3.52252 18.89 3.37761 18.7303 3.23733C18.5784 3.104 18.4229 2.9746 18.2638 2.8496C18.1115 2.73016 17.956 2.61465 17.7974 2.50307C17.6446 2.39567 17.4893 2.29219 17.331 2.19266C17.178 2.09636 17.0224 2.00377 16.8645 1.91488C16.7113 1.82877 16.5557 1.74613 16.3981 1.66719C16.2446 1.59034 16.0891 1.51719 15.9317 1.44752C15.778 1.37946 15.6224 1.31488 15.4652 1.254C15.3113 1.19428 15.156 1.1378 14.9988 1.08502C14.8448 1.03317 14.6893 0.984787 14.5324 0.939649C14.3782 0.895436 14.2226 0.854463 14.0659 0.816732C13.9117 0.779695 13.7562 0.745898 13.5995 0.715574C13.4451 0.685713 13.2895 0.659093 13.133 0.635713C12.9786 0.612565 12.8231 0.592889 12.6666 0.576222C12.512 0.559787 12.3567 0.546593 12.2002 0.536639C12.0455 0.526917 11.89 0.520435 11.7337 0.517195C11.6562 0.515574 11.5784 0.514648 11.5004 0.514648C11.4224 0.514648 11.3449 0.515574 11.2671 0.517195C11.1108 0.520435 10.9553 0.526917 10.8006 0.536639C10.6442 0.546593 10.4888 0.559787 10.3342 0.576222C10.1777 0.592658 10.0222 0.612565 9.86777 0.635713C9.71129 0.659093 9.55573 0.685713 9.40133 0.715574C9.24462 0.745898 9.08906 0.779695 8.9349 0.816732C8.77818 0.854232 8.62263 0.895204 8.46846 0.939649C8.31152 0.984787 8.15596 1.03317 8.00203 1.08502C7.84485 1.1378 7.68929 1.19428 7.53559 1.254C7.37841 1.31511 7.22286 1.37969 7.06916 1.44752C6.91175 1.51719 6.75619 1.59034 6.60272 1.66719C6.44508 1.74613 6.28953 1.82877 6.13628 1.91488C5.97841 2.00377 5.82286 2.09636 5.66985 2.19266C5.51152 2.29219 5.35596 2.3959 5.20341 2.50307C5.04485 2.61465 4.88929 2.73016 4.73698 2.8496C4.57795 2.9746 4.4224 3.104 4.27054 3.23733C4.11082 3.37761 3.95527 3.52229 3.80411 3.67159C3.64369 3.8297 3.48814 3.99289 3.33767 4.16071C3.17633 4.34081 3.02054 4.52599 2.87124 4.7165C2.70828 4.92414 2.55272 5.13803 2.4048 5.35747C2.23953 5.60284 2.08374 5.85516 1.93837 6.11396C1.76869 6.41581 1.61291 6.72669 1.47193 7.04544C1.29184 7.45261 1.13559 7.87275 1.0055 8.304C0.702257 9.3084 0.539062 10.3737 0.539062 11.4771C0.539062 12.5804 0.702257 13.6457 1.0055 14.6501C1.09161 14.9353 1.18929 15.2156 1.2974 15.4903C1.33837 15.5961 1.38073 15.7015 1.42517 15.8063C1.9761 17.1086 2.76453 18.2781 3.76846 19.2822C4.77263 20.2864 5.94207 21.0748 7.24439 21.6255C8.593 22.1959 10.0252 22.4853 11.5013 22.4853C12.9775 22.4853 14.4097 22.1961 15.7583 21.6255C17.0606 21.0746 18.23 20.2864 19.2342 19.2822C20.2384 18.2781 21.0268 17.1086 21.5775 15.8063C21.6219 15.7012 21.6645 15.5957 21.7055 15.4896C21.8136 15.2149 21.9111 14.935 21.9972 14.6501C22.2986 13.6457 22.4617 12.5804 22.4617 11.4771ZM11.5002 3.61928C14.1437 3.61928 16.2867 5.76233 16.2867 8.40585C16.2867 11.0494 14.1437 13.1924 11.5002 13.1924C8.85666 13.1924 6.7136 11.0494 6.7136 8.40585C6.71337 5.76233 8.85642 3.61928 11.5002 3.61928ZM11.4997 21.1216C9.02541 21.1216 6.7673 20.1778 5.06661 18.6315C5.10897 18.5163 5.15411 18.4026 5.20249 18.2903C5.33628 17.9795 5.49253 17.6809 5.66892 17.3957C5.81152 17.1651 5.9673 16.9434 6.13536 16.7322C6.28166 16.5482 6.43767 16.3723 6.60179 16.2045C6.75041 16.0524 6.90596 15.9072 7.06823 15.7695C7.21823 15.6422 7.37402 15.5211 7.53466 15.407C7.68582 15.2996 7.84138 15.1984 8.0011 15.1033C8.15295 15.013 8.30851 14.9281 8.46754 14.8494C8.61985 14.7741 8.77564 14.7045 8.93397 14.6406C9.08675 14.5788 9.2423 14.5225 9.40041 14.4716C9.55365 14.4223 9.7092 14.3783 9.86684 14.3397C10.0203 14.3021 10.1759 14.2697 10.3333 14.2427C10.487 14.2163 10.6425 14.195 10.7997 14.1792C10.9536 14.1635 11.1092 14.1531 11.2661 14.148C11.3437 14.1454 11.4212 14.1436 11.4995 14.1436C11.5777 14.1436 11.6553 14.1454 11.7328 14.148C11.8898 14.1533 12.0453 14.1637 12.1992 14.1792C12.3564 14.1952 12.512 14.2165 12.6657 14.2427C12.8231 14.2697 12.9786 14.3019 13.1321 14.3397C13.2898 14.3783 13.4453 14.4223 13.5986 14.4716C13.7567 14.5225 13.9122 14.5788 14.065 14.6406C14.2236 14.7047 14.3791 14.7741 14.5314 14.8494C14.6907 14.9281 14.846 15.013 14.9979 15.1033C15.1576 15.1984 15.3134 15.2996 15.4643 15.407C15.6249 15.5214 15.7807 15.6422 15.9307 15.7695C16.093 15.9072 16.2486 16.0524 16.3972 16.2045C16.5613 16.3723 16.7173 16.5482 16.8636 16.7322C17.0317 16.9436 17.1874 17.1651 17.33 17.3957C17.5064 17.6806 17.6627 17.9795 17.7965 18.2903C17.8449 18.4026 17.89 18.5163 17.9324 18.6315C16.2321 20.1778 13.974 21.1216 11.4997 21.1216Z" fill="url(#paint0_linear_2981_5769)"/>
<defs>
<linearGradient id="paint0_linear_2981_5769" x1="0.537579" y1="11.5001" x2="22.4618" y2="11.5001" gradientUnits="userSpaceOnUse">
<stop stop-color="#E95A0C"/>
<stop offset="1" stop-color="#E83B3B"/>
</linearGradient>
</defs>
</svg>
