<svg width="20" height="19" viewBox="0 0 20 19" fill="none" xmlns="http://www.w3.org/2000/svg">
<path d="M16.7211 0.217773H13.607V3.09509C13.607 3.7062 13.11 4.20342 12.4989 4.20342C12.1934 4.20342 11.9163 4.07912 11.7158 3.87842C11.5151 3.67773 11.3908 3.40064 11.3908 3.09509V0.217773H8.13342V3.09509C8.13342 3.7062 7.63643 4.20342 7.02532 4.20342C6.71976 4.20342 6.44268 4.07912 6.24222 3.87842C6.04152 3.67773 5.91722 3.40064 5.91722 3.09509V0.217773H2.8031C1.52462 0.217773 0.488281 1.25412 0.488281 2.53259V16.4506C0.488281 17.7291 1.52462 18.7655 2.8031 18.7655H16.7211C17.9994 18.7655 19.036 17.7291 19.036 16.4506V2.53259C19.036 1.25412 17.9994 0.217773 16.7211 0.217773ZM7.40101 13.6937C7.40101 14.0995 7.07208 14.4284 6.66629 14.4284H5.2656C4.85981 14.4284 4.53087 14.0995 4.53087 13.6937V12.293C4.53087 11.8872 4.85981 11.5583 5.2656 11.5583H6.66629C7.07208 11.5583 7.40101 11.8872 7.40101 12.293V13.6937ZM7.40101 9.66592C7.40101 10.0717 7.07208 10.4006 6.66629 10.4006H5.2656C4.85981 10.4006 4.53087 10.0717 4.53087 9.66592V8.26523C4.53087 7.85944 4.85981 7.5305 5.2656 7.5305H6.66629C7.07208 7.5305 7.40101 7.85944 7.40101 8.26523V9.66592ZM11.1973 13.6937C11.1973 14.0995 10.8684 14.4284 10.4626 14.4284H9.06189C8.6561 14.4284 8.32717 14.0995 8.32717 13.6937V12.293C8.32717 11.8872 8.6561 11.5583 9.06189 11.5583H10.4626C10.8684 11.5583 11.1973 11.8872 11.1973 12.293V13.6937ZM11.1973 9.66592C11.1973 10.0717 10.8684 10.4006 10.4626 10.4006H9.06189C8.6561 10.4006 8.32717 10.0717 8.32717 9.66592V8.26523C8.32717 7.85944 8.6561 7.5305 9.06189 7.5305H10.4626C10.8684 7.5305 11.1973 7.85944 11.1973 8.26523V9.66592ZM14.9936 13.6937C14.9936 14.0995 14.6647 14.4284 14.2589 14.4284H12.8582C12.4524 14.4284 12.1235 14.0995 12.1235 13.6937V12.293C12.1235 11.8872 12.4524 11.5583 12.8582 11.5583H14.2589C14.6647 11.5583 14.9936 11.8872 14.9936 12.293V13.6937ZM14.9936 9.66592C14.9936 10.0717 14.6647 10.4006 14.2589 10.4006H12.8582C12.4524 10.4006 12.1235 10.0717 12.1235 9.66592V8.26523C12.1235 7.85944 12.4524 7.5305 12.8582 7.5305H14.2589C14.6647 7.5305 14.9936 7.85944 14.9936 8.26523V9.66592Z" fill="url(#paint0_linear_2981_5760)"/>
<defs>
<linearGradient id="paint0_linear_2981_5760" x1="0.488281" y1="9.49162" x2="19.036" y2="9.49162" gradientUnits="userSpaceOnUse">
<stop stop-color="#E95A0C"/>
<stop offset="1" stop-color="#E83B3B"/>
</linearGradient>
</defs>
</svg>
